<?xml version="1.0" encoding="UTF-8" standalone="no"?>
<!-- Created with Inkscape (http://www.inkscape.org/) -->

<svg
   xmlns:dc="http://purl.org/dc/elements/1.1/"
   xmlns:cc="http://creativecommons.org/ns#"
   xmlns:rdf="http://www.w3.org/1999/02/22-rdf-syntax-ns#"
   xmlns:svg="http://www.w3.org/2000/svg"
   xmlns="http://www.w3.org/2000/svg"
   xmlns:sodipodi="http://sodipodi.sourceforge.net/DTD/sodipodi-0.dtd"
   xmlns:inkscape="http://www.inkscape.org/namespaces/inkscape"
   id="svg2"
   version="1.1"
   inkscape:version="0.91 r13725"
   width="700"
   height="700"
   viewBox="0 0 700 700"
   sodipodi:docname="upload.svg"
   inkscape:export-filename="/home/gleb/Projects/CryptoVK/CryptoVK/src/Resources/upload.png"
   inkscape:export-xdpi="6.4285712"
   inkscape:export-ydpi="6.4285712">
  <metadata
     id="metadata8">
    <rdf:RDF>
      <cc:Work
         rdf:about="">
        <dc:format>image/svg+xml</dc:format>
        <dc:type
           rdf:resource="http://purl.org/dc/dcmitype/StillImage" />
        <dc:title></dc:title>
      </cc:Work>
    </rdf:RDF>
  </metadata>
  <defs
     id="defs6" />
  <sodipodi:namedview
     pagecolor="#ffffff"
     bordercolor="#666666"
     borderopacity="1"
     objecttolerance="10"
     gridtolerance="10"
     guidetolerance="10"
     inkscape:pageopacity="0"
     inkscape:pageshadow="2"
     inkscape:window-width="1366"
     inkscape:window-height="706"
     id="namedview4"
     showgrid="false"
     inkscape:zoom="0.36875"
     inkscape:cx="-210.9091"
     inkscape:cy="327.56731"
     inkscape:window-x="0"
     inkscape:window-y="27"
     inkscape:window-maximized="1"
     inkscape:current-layer="svg2" />
  <path
     style="fill:#000000"
     d="M 504.95411,647.81865 C 444.68893,640.2803 397.01018,597.54705 382.2938,537.88136 c -3.66269,-14.84989 -4.56259,-39.48115 -2.00981,-55.0109 11.93408,-72.601 74.3555,-123.88866 147.04652,-120.81869 23.86584,1.00793 40.26638,5.23408 60.51826,15.59455 39.1474,20.02705 65.7113,55.22544 75.17479,99.61004 2.91589,13.67572 2.9066,42.64832 -0.018,56.25 -11.02922,51.29406 -46.19482,91.19291 -95.05001,107.84368 -17.87993,6.09381 -44.30628,8.80711 -63.0014,6.46861 z"
     id="path4144"
     inkscape:connector-curvature="0" />
  <path
     style="fill:#ffffff;fill-opacity:1"
     d="m 546.08051,553.50636 0,-24.375 24.375,0 24.375,0 0,-23.75 0,-23.75 -24.375,0 -24.375,0 0,-25 0,-25 -23.75,0 -23.75,0 0,25 0,25 -25,0 -25,0 0,23.75 0,23.75 25,0 25,0 0,24.375 0,24.375 23.75,0 23.75,0 0,-24.375 z"
     id="path4142"
     inkscape:connector-curvature="0" />
  <path
     style="fill:#000000"
     d="M 130.47669,632.59132 C 109.20424,629.39191 89.44503,619.38542 74.53653,604.26202 61.19632,590.72952 53.35951,576.82108 48.60908,558.24709 46.1449,548.61226 46.10207,544.60717 46.1234,325.83077 46.1469,85.177826 45.85614,147.9892 52.76388,130.88736 c 5.20644,-12.88985 11.02006,-21.44562 22.1032,-32.528754 11.08314,-11.08314 19.63891,-16.89676 32.52875,-22.1032 16.29532,-6.581972 16.93736,-6.617122 121.29568,-6.640481 108.56158,-0.0243 101.29613,-0.594627 117.87022,9.252621 13.6266,8.09604 24.5885,18.05985 75.61783,68.732754 55.09982,54.71494 70.33521,71.02252 79.77884,85.39327 16.03798,55.13319 11.42867,18.1725 13.05155,86.92274 l -6.01663,0.83582 c -8.40988,1.1683 -24.41628,5.24 -34.67204,8.81985 -4.76048,1.66168 -9.11985,3.02124 -9.6875,3.02124 0.65413,-22.50622 3.19489,-37.68894 -9.63505,-58.89951 -8.15417,-5.44713 -11.05237,-5.72473 -67.75692,-6.49009 l -54.48486,-0.7354 -5.16125,-3.57883 c -3.22239,-2.23442 -6.3507,-5.96576 -8.32762,-9.93292 l -3.16639,-6.35411 0,-49.58395 c 0,-28.33843 -0.54399,-52.45239 -1.26959,-56.27846 -1.69622,-8.94415 -6.00788,-13.73685 -9.9615,-18.33423 l -4.13862,-2.8125 -80.75264,0.0148 c -63.37203,0.0117 -82.09785,0.37417 -87.00265,1.68436 -18.44659,4.92751 -31.60877,18.64636 -35.5474,37.05081 -1.10481,5.16254 -1.37555,8.73942 -1.08694,171.125 l 0.38434,216.25 3.36003,7.16932 c 4.5031,9.60833 8.82702,15.05423 16.31962,20.5543 13.08852,9.60787 6.48649,9.15138 132.35382,9.15138 l 112.27043,0 4.92666,10.32237 c 4.53905,9.51025 16.43351,28.47669 22.53135,35.92763 1.40663,1.71875 2.57,3.54687 2.58529,4.0625 0.0362,1.22165 -252.40926,0.91707 -260.5972,-0.31441 z"
     id="path4138"
     inkscape:connector-curvature="0"
     sodipodi:nodetypes="csssssssssccssccscsscssscsssscssscsscsc" />
</svg>
