<?xml version="1.0" encoding="UTF-8" standalone="no"?>
<!-- Created with Inkscape (http://www.inkscape.org/) -->

<svg
   xmlns:dc="http://purl.org/dc/elements/1.1/"
   xmlns:cc="http://creativecommons.org/ns#"
   xmlns:rdf="http://www.w3.org/1999/02/22-rdf-syntax-ns#"
   xmlns:svg="http://www.w3.org/2000/svg"
   xmlns="http://www.w3.org/2000/svg"
   xmlns:sodipodi="http://sodipodi.sourceforge.net/DTD/sodipodi-0.dtd"
   xmlns:inkscape="http://www.inkscape.org/namespaces/inkscape"
   id="svg2"
   version="1.1"
   inkscape:version="0.91 r13725"
   width="700"
   height="700"
   viewBox="0 0 700 700"
   sodipodi:docname="upload.svg"
   inkscape:export-filename="/home/gleb/Projects/Concrypt/src/main/resources/assets/upload.png"
   inkscape:export-xdpi="6.4285712"
   inkscape:export-ydpi="6.4285712">
  <metadata
     id="metadata8">
    <rdf:RDF>
      <cc:Work
         rdf:about="">
        <dc:format>image/svg+xml</dc:format>
        <dc:type
           rdf:resource="http://purl.org/dc/dcmitype/StillImage" />
        <dc:title />
      </cc:Work>
    </rdf:RDF>
  </metadata>
  <defs
     id="defs6" />
  <sodipodi:namedview
     pagecolor="#ffffff"
     bordercolor="#666666"
     borderopacity="1"
     objecttolerance="10"
     gridtolerance="10"
     guidetolerance="10"
     inkscape:pageopacity="0"
     inkscape:pageshadow="2"
     inkscape:window-width="1366"
     inkscape:window-height="706"
     id="namedview4"
     showgrid="false"
     inkscape:zoom="0.0921875"
     inkscape:cx="-1439.7786"
     inkscape:cy="845.46872"
     inkscape:window-x="0"
     inkscape:window-y="27"
     inkscape:window-maximized="1"
     inkscape:current-layer="svg2"
     showguides="true"
     inkscape:guide-bbox="true"
     inkscape:snap-object-midpoints="true"
     inkscape:object-nodes="true"
     inkscape:snap-intersection-paths="true"
     inkscape:snap-global="false" />
  <path
     style="fill:none;fill-rule:evenodd;stroke:#000000;stroke-width:30;stroke-linecap:butt;stroke-linejoin:miter;stroke-miterlimit:4;stroke-dasharray:none;stroke-opacity:1"
     d="M 116.45763,44.188408 367.54856,43.25371 c 5.79891,-0.02159 159.19516,151.6332 158.27287,156.4709 l -0.40518,384.87852 c -0.0349,33.12198 -26.665,59.787 -59.787,59.787 l -349.17164,0 c -33.121999,0 -59.786999,-26.665 -59.786999,-59.787 l 0,-480.62773 c 0,-33.121992 26.66503,-59.831198 59.786999,-59.786992 z"
     id="rect4137"
     inkscape:connector-curvature="0"
     sodipodi:nodetypes="cscssssssc" />
  <path
     style="fill:#ffffff;fill-opacity:1"
     d="m 483.47639,693.57283 c -79.61091,-9.95824 -142.59502,-66.40929 -162.03551,-145.22827 -4.83845,-19.61686 -6.02723,-52.155 -2.65498,-72.66996 15.76504,-95.90665 98.22437,-163.65817 194.24994,-159.60271 31.52702,1.33149 53.1923,6.91427 79.94524,20.60056 51.71411,26.45593 86.80529,72.95336 99.30665,131.58587 3.85192,18.06576 3.83965,56.33886 -0.0238,74.30682 -14.56972,67.75997 -61.02383,120.46675 -125.56203,142.46259 -23.61957,8.04998 -58.52904,11.63428 -83.22549,8.5451 z"
     id="path4144-6"
     inkscape:connector-curvature="0" />
  <path
     style="fill:#000000"
     d="M 488.95411,647.81865 C 428.68893,640.2803 381.01018,597.54705 366.2938,537.88136 c -3.66269,-14.84989 -4.56259,-39.48115 -2.00981,-55.0109 11.93408,-72.601 74.3555,-123.88866 147.04652,-120.81869 23.86584,1.00793 40.26638,5.23408 60.51826,15.59455 39.1474,20.02705 65.7113,55.22544 75.17479,99.61004 2.91589,13.67572 2.9066,42.64832 -0.018,56.25 -11.02922,51.29406 -46.19482,91.19291 -95.05001,107.84368 -17.87993,6.09381 -44.30628,8.80711 -63.0014,6.46861 z"
     id="path4144"
     inkscape:connector-curvature="0" />
  <path
     style="fill:#ffffff;fill-opacity:1"
     d="m 530.08051,553.50636 0,-24.375 24.375,0 24.375,0 0,-23.75 0,-23.75 -24.375,0 -24.375,0 0,-25 0,-25 -23.75,0 -23.75,0 0,25 0,25 -25,0 -25,0 0,23.75 0,23.75 25,0 25,0 0,24.375 0,24.375 23.75,0 23.75,0 0,-24.375 z"
     id="path4142"
     inkscape:connector-curvature="0" />
  <path
     style="fill:#000000;fill-opacity:1;fill-rule:nonzero;stroke:#000000;stroke-width:25;stroke-linecap:round;stroke-linejoin:round;stroke-miterlimit:4;stroke-dasharray:none;stroke-opacity:1"
     d="m 358.75614,46.862709 0,167.031391 167.03139,0"
     id="path4216"
     inkscape:connector-curvature="0" />
  <path
     style="fill:#ffffff;fill-opacity:1;fill-rule:nonzero;stroke:#ffffff;stroke-width:26.89893341;stroke-linecap:square;stroke-linejoin:round;stroke-miterlimit:4;stroke-dasharray:none;stroke-opacity:1"
     d="M 379.19816,17.804622 559.66002,194.00666"
     id="path4239"
     inkscape:connector-curvature="0"
     inkscape:transform-center-x="75.861869"
     inkscape:transform-center-y="53.978646" />
</svg>
